<?xml version="1.0" encoding="UTF-8" standalone="no"?>
<!-- Created with Inkscape (http://www.inkscape.org/) -->
<svg
   xmlns:dc="http://purl.org/dc/elements/1.1/"
   xmlns:cc="http://creativecommons.org/ns#"
   xmlns:rdf="http://www.w3.org/1999/02/22-rdf-syntax-ns#"
   xmlns:svg="http://www.w3.org/2000/svg"
   xmlns="http://www.w3.org/2000/svg"
   xmlns:sodipodi="http://sodipodi.sourceforge.net/DTD/sodipodi-0.dtd"
   xmlns:inkscape="http://www.inkscape.org/namespaces/inkscape"
   id="svg3513"
   sodipodi:version="0.32"
   inkscape:version="0.46"
   width="380"
   height="272.5"
   xml:space="preserve"
   sodipodi:docname="Metz.svg"
   inkscape:output_extension="org.inkscape.output.svg.inkscape"><metadata
     id="metadata3518"><rdf:RDF><cc:Work
         rdf:about=""><dc:format>image/svg+xml</dc:format><dc:type
           rdf:resource="http://purl.org/dc/dcmitype/StillImage" /></cc:Work></rdf:RDF></metadata><defs
     id="defs3516"><inkscape:perspective
       sodipodi:type="inkscape:persp3d"
       inkscape:vp_x="0 : 526.18109 : 1"
       inkscape:vp_y="0 : 1000 : 0"
       inkscape:vp_z="744.09448 : 526.18109 : 1"
       inkscape:persp3d-origin="372.04724 : 350.78739 : 1"
       id="perspective3520" /><clipPath
       clipPathUnits="userSpaceOnUse"
       id="clipPath3530"><path
         d="M 0,0 L 3035.39,0 L 3035.39,2175.32 L 0,2175.32 L 0,0 z"
         id="path3532" /></clipPath></defs><sodipodi:namedview
     inkscape:window-height="726"
     inkscape:window-width="645"
     inkscape:pageshadow="2"
     inkscape:pageopacity="0.0"
     guidetolerance="10.0"
     gridtolerance="10.0"
     objecttolerance="10.0"
     borderopacity="1.0"
     bordercolor="#666666"
     pagecolor="#ffffff"
     id="base"
     showgrid="false"
     inkscape:zoom="1.4657895"
     inkscape:cx="190"
     inkscape:cy="136.25"
     inkscape:window-x="369"
     inkscape:window-y="25"
     inkscape:current-layer="g3522" /><g
     id="g3522"
     inkscape:groupmode="layer"
     inkscape:label="umetz"
     transform="matrix(1.25,0,0,-1.25,0,272.5)"><g
       id="g3524"
       transform="scale(0.1,0.1)"><g
         id="g3526"><g
           id="g3528"
           clip-path="url(#clipPath3530)"><path
             d="M 2316.08,700.109 L 2256.32,711.012 C 2263.1,734.57 2274.77,752.051 2291.3,763.379 C 2307.84,774.711 2332.45,780.422 2365.07,780.422 C 2394.71,780.422 2416.75,776.93 2431.25,770.082 C 2445.73,763.191 2455.93,754.48 2461.86,743.879 C 2467.77,733.301 2470.71,713.879 2470.71,685.629 L 2469.88,609.59 C 2469.88,587.969 2470.86,571.949 2472.96,561.699 C 2475.07,551.461 2479,540.41 2484.78,528.711 L 2418.03,528.711 C 2416.28,533 2414.18,539.352 2411.65,547.809 C 2410.59,551.691 2409.81,554.23 2409.35,555.449 C 2398.06,544.582 2386.04,536.449 2373.15,531 C 2360.38,525.551 2346.67,522.852 2332.14,522.852 C 2306.46,522.852 2286.27,529.73 2271.5,543.531 C 2256.68,557.27 2249.3,574.691 2249.3,595.711 C 2249.3,609.641 2252.67,622.059 2259.39,632.988 C 2266.2,643.871 2275.66,652.25 2287.85,658.031 C 2299.99,663.84 2317.57,668.871 2340.49,673.238 C 2371.43,678.93 2392.9,684.289 2404.84,689.281 L 2404.84,695.859 C 2404.84,708.52 2401.66,717.539 2395.39,722.961 C 2389.08,728.352 2377.18,731.031 2359.74,731.031 C 2347.93,731.031 2338.76,728.762 2332.14,724.199 C 2325.53,719.641 2320.17,711.59 2316.08,700.109 z M 2404.84,646.59 C 2396.43,643.832 2383.05,640.531 2364.8,636.66 C 2346.5,632.762 2334.56,628.988 2328.96,625.32 C 2320.37,619.289 2316.08,611.629 2316.08,602.398 C 2316.08,593.27 2319.51,585.422 2326.39,578.789 C 2333.22,572.16 2341.99,568.832 2352.6,568.832 C 2364.47,568.832 2375.81,572.699 2386.6,580.391 C 2394.5,586.25 2399.74,593.441 2402.24,601.961 C 2403.95,607.488 2404.84,618.051 2404.84,633.641 L 2404.84,646.59"
             style="fill:#862126;fill-opacity:1;fill-rule:nonzero;stroke:none"
             id="path3534" /><path
             d="M 2667.68,528.711 L 2667.68,565.43 C 2658.51,552.352 2646.47,541.98 2631.58,534.32 C 2616.64,526.691 2600.9,522.852 2584.35,522.852 C 2567.43,522.852 2552.27,526.469 2538.89,533.738 C 2525.44,541.012 2515.74,551.191 2509.74,564.352 C 2503.75,577.461 2500.73,595.621 2500.73,618.801 L 2500.73,774.52 L 2567.5,774.52 L 2567.5,661.301 C 2567.5,626.621 2568.76,605.422 2571.19,597.59 C 2573.62,589.789 2578.07,583.59 2584.58,579.059 C 2591.04,574.441 2599.28,572.199 2609.24,572.199 C 2620.63,572.199 2630.84,575.219 2639.82,581.359 C 2648.8,587.441 2654.97,595.051 2658.29,604.082 C 2661.66,613.121 2663.3,635.309 2663.3,670.582 L 2663.3,774.52 L 2730.06,774.52 L 2730.06,528.711 L 2667.68,528.711"
             style="fill:#862126;fill-opacity:1;fill-rule:nonzero;stroke:none"
             id="path3536" /><path
             d="M 2774.09,530.461 L 2840.8908,530.461 L 2840.8908,869.121 L 2774.09,869.121 L 2774.09,530.461 z"
             style="fill:#862126;fill-opacity:1;fill-rule:nonzero;stroke:none"
             id="path3538" /><path
             d="M 1702.23,319.859 L 1772.25,308.582 C 1763.34,285.031 1749.21,267.059 1729.94,254.77 C 1710.63,242.441 1686.53,236.301 1657.52,236.301 C 1611.68,236.301 1577.72,250.211 1555.74,278.082 C 1538.32,300.398 1529.62,328.57 1529.62,362.602 C 1529.62,403.25 1541.11,435.059 1564.03,458.051 C 1587.04,481.059 1616.07,492.57 1651.16,492.57 C 1690.56,492.57 1721.7,480.57 1744.48,456.539 C 1767.3,432.52 1778.21,395.73 1777.17,346.16 L 1601.64,346.16 C 1602.13,327.16 1607.69,312.461 1618.34,301.859 C 1629.01,291.332 1642.28,286.039 1658.21,286.039 C 1669.02,286.039 1678.09,288.738 1685.5,294.039 C 1692.89,299.371 1698.47,307.98 1702.23,319.859 z M 1707.15,385.559 C 1706.68,404.262 1701.46,418.461 1691.53,428.262 C 1681.61,437.93 1669.52,442.832 1655.28,442.832 C 1640.01,442.832 1627.46,437.711 1617.53,427.43 C 1607.61,417.141 1602.69,403.199 1602.91,385.559 L 1707.15,385.559"
             style="fill:#4f4b4c;fill-opacity:1;fill-rule:nonzero;stroke:none"
             id="path3540" /><path
             d="M 1876.74,242.859 L 1806.67,242.859 L 1806.67,487.871 L 1871.78,487.871 L 1871.78,453.172 C 1883.01,469.539 1893.13,480.23 1902.09,485.16 C 1911.08,490.102 1921.28,492.57 1932.73,492.57 C 1948.79,492.57 1964.3,488.5 1979.29,480.352 L 1957.06,423.781 C 1945.2,430.832 1934.15,434.391 1923.88,434.391 C 1914.04,434.391 1905.69,431.898 1898.77,426.93 C 1891.92,421.941 1886.55,412.941 1882.62,399.91 C 1878.64,386.922 1876.74,359.691 1876.74,318.211 L 1876.74,242.859"
             style="fill:#4f4b4c;fill-opacity:1;fill-rule:nonzero;stroke:none"
             id="path3542" /><path
             d="M 2000.08,236.52 L 2070.1034,236.52 L 2070.1034,781.961 L 2000.08,781.961 L 2000.08,236.52 z"
             style="fill:#4f4b4c;fill-opacity:1;fill-rule:nonzero;stroke:none"
             id="path3544" /><path
             d="M 2162.07,411.832 L 2098.97,422.172 C 2106.13,446.121 2118.46,463.82 2135.99,475.309 C 2153.49,486.871 2179.48,492.57 2213.99,492.57 C 2245.35,492.57 2268.69,489.199 2284.06,482.332 C 2299.38,475.531 2310.16,466.852 2316.41,456.352 C 2322.66,445.898 2325.82,426.59 2325.82,398.551 L 2324.82,323.129 C 2324.82,301.68 2325.92,285.82 2328.14,275.621 C 2330.35,265.398 2334.52,254.5 2340.57,242.859 L 2270.57,242.859 C 2268.77,247.09 2266.53,253.398 2263.87,261.691 C 2262.68,265.449 2261.88,267.941 2261.39,269.148 C 2249.47,258.23 2236.72,249.988 2223.18,244.551 C 2209.58,239.012 2195.08,236.301 2179.68,236.301 C 2152.55,236.301 2131.15,243.129 2115.5,256.809 C 2099.85,270.48 2092.06,287.789 2092.06,308.641 C 2092.06,322.461 2095.59,334.789 2102.78,345.629 C 2109.91,356.469 2119.93,364.762 2132.87,370.52 C 2145.76,376.27 2164.33,381.301 2188.61,385.641 C 2221.4,391.281 2244.11,396.602 2256.74,401.52 L 2256.74,408.02 C 2256.74,420.512 2253.39,429.469 2246.68,434.84 C 2239.96,440.141 2227.29,442.832 2208.66,442.832 C 2196.07,442.832 2186.26,440.531 2179.2,435.941 C 2172.13,431.398 2166.43,423.34 2162.07,411.832 z M 2256.74,359.281 C 2247.78,356.52 2233.54,353.238 2214.05,349.441 C 2194.53,345.629 2181.8,341.871 2175.84,338.16 C 2166.66,332.25 2162.07,324.68 2162.07,315.539 C 2162.07,306.512 2165.72,298.711 2173.07,292.16 C 2180.42,285.539 2189.71,282.289 2201.05,282.289 C 2213.72,282.289 2225.77,286.129 2237.27,293.77 C 2245.74,299.57 2251.32,306.648 2254.03,315.109 C 2255.85,320.52 2256.74,331.039 2256.74,346.461 L 2256.74,359.281"
             style="fill:#4f4b4c;fill-opacity:1;fill-rule:nonzero;stroke:none"
             id="path3546" /><path
             d="M 2385.87,242.859 L 2455.8778,242.859 L 2455.8778,487.871 L 2385.87,487.871 L 2385.87,242.859 z"
             style="fill:#4f4b4c;fill-opacity:1;fill-rule:nonzero;stroke:none"
             id="path3548" /><path
             d="M 2745.11,242.859 L 2675.09,242.859 L 2675.09,367.309 C 2675.09,393.609 2673.54,410.66 2670.56,418.352 C 2667.57,426.102 2662.69,432.129 2655.93,436.379 C 2649.16,440.699 2641.03,442.832 2631.58,442.832 C 2619.35,442.832 2608.46,439.75 2598.77,433.672 C 2589.11,427.539 2582.47,419.398 2578.87,409.289 C 2575.3,399.191 2573.48,380.531 2573.48,353.289 L 2573.48,242.859 L 2503.44,242.859 L 2503.44,487.871 L 2568.58,487.871 L 2568.58,452.039 C 2591.69,479.02 2620.85,492.57 2655.97,492.57 C 2671.45,492.57 2685.61,490.031 2698.43,484.879 C 2711.22,479.73 2720.94,473.211 2727.52,465.191 C 2734.11,457.23 2738.67,448.219 2741.24,438.09 C 2743.84,427.949 2745.11,413.449 2745.11,394.629 L 2745.11,242.859"
             style="fill:#4f4b4c;fill-opacity:1;fill-rule:nonzero;stroke:none"
             id="path3550" /><path
             d="M 2960.45,319.859 L 3030.44,308.582 C 3021.53,285.031 3007.4,267.059 2988.1,254.77 C 2968.83,242.441 2944.69,236.301 2915.71,236.301 C 2869.88,236.301 2835.91,250.211 2813.91,278.082 C 2796.51,300.398 2787.81,328.57 2787.81,362.602 C 2787.81,403.25 2799.31,435.059 2822.25,458.051 C 2845.21,481.059 2874.26,492.57 2909.35,492.57 C 2948.78,492.57 2979.9,480.57 3002.7,456.539 C 3025.48,432.52 3036.4,395.73 3035.39,346.16 L 2859.86,346.16 C 2860.31,327.16 2865.88,312.461 2876.57,301.859 C 2887.24,291.332 2900.5,286.039 2916.43,286.039 C 2927.25,286.039 2936.33,288.738 2943.7,294.039 C 2951.08,299.371 2956.66,307.98 2960.45,319.859 z M 2965.38,385.559 C 2964.89,404.262 2959.62,418.461 2949.72,428.262 C 2939.82,437.93 2927.71,442.832 2913.48,442.832 C 2898.24,442.832 2885.69,437.711 2875.74,427.43 C 2865.81,417.141 2860.91,403.199 2861.14,385.559 L 2965.38,385.559"
             style="fill:#4f4b4c;fill-opacity:1;fill-rule:nonzero;stroke:none"
             id="path3552" /><path
             d="M 0,2175.32 C 0,2175.32 187.16,531.469 1017.21,257.84 C 1017.21,257.84 1419.43,77.7812 1785.19,788.301 C 1785.19,788.301 987.148,-314.309 0,2175.32"
             style="fill:#862126;fill-opacity:1;fill-rule:nonzero;stroke:none"
             id="path3554" /><path
             d="M 2200.14,747.672 C 2179.57,769.879 2154.52,780.961 2125.06,780.961 C 2119.82,780.961 2114.78,780.469 2109.81,779.691 L 2109.81,729.871 C 2124.08,729.039 2136.19,722.961 2146.08,711.422 C 2156.73,699.012 2162.04,680.039 2162.04,654.441 C 2162.04,627.012 2156.87,607.262 2146.55,595.238 C 2136.68,583.762 2124.44,577.84 2109.81,577.34 L 2109.81,527.469 C 2114.56,526.801 2119.48,526.309 2124.57,526.309 C 2154.05,526.309 2179.2,537.59 2199.89,560.121 C 2220.6,582.68 2230.97,614.309 2230.97,654.988 C 2230.97,694.59 2220.68,725.5 2200.14,747.672"
             style="fill:#4f4b4c;fill-opacity:1;fill-rule:nonzero;stroke:none"
             id="path3556" /><path
             d="M 707.141,3.76172 L 653.734,3.76172 L 653.734,30.0898 C 645.68,19.2812 637.59,11.5 629.414,6.87109 C 621.215,2.30859 611.184,0 599.262,0 C 583.379,0 570.922,5.14062 561.879,15.4297 C 552.883,25.7695 548.332,41.6484 548.332,63.1016 L 548.332,167.09 L 606.035,167.09 L 606.035,77.1484 C 606.035,66.9102 607.824,59.582 611.328,55.3086 C 614.855,50.9297 619.809,48.8008 626.211,48.8008 C 633.164,48.8008 638.859,51.7109 643.297,57.4297 C 647.734,63.1719 649.945,73.4883 649.945,88.4102 L 649.945,167.09 L 707.141,167.09 L 707.141,3.76172"
             style="fill:#862126;fill-opacity:1;fill-rule:nonzero;stroke:none"
             id="path3558" /><path
             d="M 738.609,167.09 L 791.879,167.09 L 791.879,140.41 C 799.914,151.309 808.023,159.102 816.281,163.801 C 824.492,168.5 834.531,170.832 846.352,170.832 C 862.316,170.832 874.828,165.68 883.871,155.398 C 892.902,145.051 897.406,129.129 897.406,107.609 L 897.406,3.76172 L 839.711,3.76172 L 839.711,93.4492 C 839.711,103.68 837.93,110.941 834.41,115.18 C 830.879,119.449 825.93,121.551 819.555,121.551 C 812.492,121.551 806.789,118.73 802.398,112.961 C 797.988,107.23 795.836,96.9414 795.836,82.0703 L 795.836,3.76172 L 738.609,3.76172 L 738.609,167.09"
             style="fill:#862126;fill-opacity:1;fill-rule:nonzero;stroke:none"
             id="path3560" /><path
             d="M 930.375,3.76172 L 987.5625,3.76172 L 987.5625,167.08972 L 930.375,167.08972 L 930.375,3.76172 z"
             style="fill:#862126;fill-opacity:1;fill-rule:nonzero;stroke:none"
             id="path3562" /><path
             d="M 1004.43,167.09 L 1064.28,167.09 L 1093.47,63.6016 L 1123.5,167.09 L 1181.5,167.09 L 1117.84,3.76172 L 1066.9,3.76172 L 1004.43,167.09"
             style="fill:#862126;fill-opacity:1;fill-rule:nonzero;stroke:none"
             id="path3564" /><path
             d="M 1354.48,69.9609 L 1239.06,69.9609 C 1240.12,59.7812 1242.56,52.25 1246.53,47.2812 C 1252.08,40.1406 1259.29,36.6094 1268.22,36.6094 C 1273.88,36.6094 1279.23,38.1484 1284.33,41.25 C 1287.41,43.2188 1290.73,46.6797 1294.3,51.6484 L 1351.03,45.9805 C 1342.38,29.5898 1331.95,17.8086 1319.73,10.6719 C 1307.49,3.53906 1289.97,0 1267.13,0 C 1247.32,0 1231.71,3.03125 1220.33,9.12109 C 1208.96,15.2305 1199.55,24.9414 1192.06,38.2617 C 1184.59,51.5391 1180.87,67.1289 1180.87,85.1016 C 1180.87,110.648 1188.35,131.34 1203.37,147.16 C 1218.4,162.922 1239.11,170.832 1265.54,170.832 C 1287.01,170.832 1303.94,167.309 1316.32,160.199 C 1328.8,153.129 1338.23,142.891 1344.73,129.449 C 1351.22,116.012 1354.48,98.5391 1354.48,76.9688 L 1354.48,69.9609 z M 1296.27,99.9805 C 1295.13,112.039 1292.11,120.691 1287.22,125.93 C 1282.35,131.18 1275.91,133.77 1267.94,133.77 C 1258.76,133.77 1251.38,129.789 1245.89,121.898 C 1242.37,117.012 1240.14,109.691 1239.2,99.9805 L 1296.27,99.9805"
             style="fill:#862126;fill-opacity:1;fill-rule:nonzero;stroke:none"
             id="path3566" /><path
             d="M 1378.05,167.09 L 1431.79,167.09 L 1431.79,140.238 C 1436.98,151.91 1442.27,159.898 1447.79,164.289 C 1453.28,168.672 1460.06,170.832 1468.15,170.832 C 1476.6,170.832 1485.86,167.961 1495.91,162.141 L 1478.16,117.41 C 1471.39,120.512 1466.05,122.039 1462.09,122.039 C 1454.58,122.039 1448.76,118.621 1444.62,111.898 C 1438.7,102.359 1435.76,84.5586 1435.76,58.4297 L 1435.76,3.76172 L 1378.05,3.76172 L 1378.05,167.09"
             style="fill:#862126;fill-opacity:1;fill-rule:nonzero;stroke:none"
             id="path3568" /><path
             d="M 1499.69,49.2891 L 1556.89,54.9102 C 1559.28,47.5 1562.57,42.1914 1566.79,39.0195 C 1571.06,35.832 1576.75,34.2812 1583.8,34.2812 C 1591.55,34.2812 1597.55,36.0508 1601.77,39.6484 C 1605.06,42.2695 1606.72,45.6211 1606.72,49.6094 C 1606.72,54.082 1604.57,57.5703 1600.22,60.0117 C 1597.1,61.7812 1588.83,63.9297 1575.42,66.4688 C 1555.46,70.25 1541.55,73.7812 1533.78,76.9688 C 1526,80.2383 1519.44,85.7109 1514.11,93.3984 C 1508.76,101.09 1506.12,109.879 1506.12,119.719 C 1506.12,130.512 1508.98,139.801 1514.76,147.602 C 1520.51,155.398 1528.44,161.199 1538.56,165.039 C 1548.66,168.879 1562.21,170.832 1579.18,170.832 C 1597.16,170.832 1610.38,169.352 1618.95,166.352 C 1627.46,163.332 1634.59,158.66 1640.35,152.352 C 1646.04,146.02 1650.8,137.48 1654.56,126.762 L 1600.31,121.07 C 1598.87,126.309 1596.47,130.172 1593.12,132.609 C 1588.47,135.879 1582.94,137.539 1576.4,137.539 C 1569.78,137.539 1564.97,136.289 1561.93,133.77 C 1558.92,131.289 1557.4,128.211 1557.4,124.648 C 1557.4,120.66 1559.3,117.621 1563.2,115.57 C 1567.02,113.52 1575.26,111.711 1587.92,110.051 C 1607.03,107.719 1621.27,104.398 1630.62,100.219 C 1639.97,96 1647.09,90.0703 1652.04,82.2891 C 1657,74.4922 1659.49,65.9414 1659.49,56.6602 C 1659.49,47.2188 1656.88,38.0508 1651.63,29.1406 C 1646.38,20.2383 1638.13,13.1602 1626.86,7.91016 C 1615.6,2.62109 1600.25,0 1580.82,0 C 1553.36,0 1533.78,4.26953 1522.13,12.832 C 1510.47,21.3594 1503.01,33.5117 1499.69,49.2891"
             style="fill:#862126;fill-opacity:1;fill-rule:nonzero;stroke:none"
             id="path3570" /><path
             d="M 1685.62,3.76172 L 1742.8192,3.76172 L 1742.8192,167.08972 L 1685.62,167.08972 L 1685.62,3.76172 z"
             style="fill:#862126;fill-opacity:1;fill-rule:nonzero;stroke:none"
             id="path3572" /><path
             d="M 1846.46,167.09 L 1878.03,167.09 L 1878.03,121.07 L 1846.46,121.07 L 1846.46,63.4805 C 1846.46,56.6016 1847.07,52.0117 1848.29,49.7617 C 1850.14,46.3086 1853.42,44.5703 1858.07,44.5703 C 1862.3,44.5703 1868.22,45.8984 1875.77,48.5508 L 1880,5.08203 C 1865.82,1.71094 1852.54,0 1840.21,0 C 1825.94,0 1815.41,1.99219 1808.63,5.96875 C 1801.88,9.98047 1796.88,16.0312 1793.65,24.1289 C 1790.38,32.3008 1788.78,45.4492 1788.78,63.6719 L 1788.78,121.07 L 1767.54,121.07 L 1767.54,167.09 L 1846.46,167.09"
             style="fill:#862126;fill-opacity:1;fill-rule:nonzero;stroke:none"
             id="path3574" /><path
             d="M 2068.93,69.9609 L 1953.52,69.9609 C 1954.58,59.7812 1957.06,52.25 1960.99,47.2812 C 1966.54,40.1406 1973.76,36.6094 1982.72,36.6094 C 1988.34,36.6094 1993.67,38.1484 1998.76,41.25 C 2001.86,43.2188 2005.17,46.6797 2008.76,51.6484 L 2065.5,45.9805 C 2056.85,29.5898 2046.37,17.8086 2034.2,10.6719 C 2021.96,3.53906 2004.46,0 1981.62,0 C 1961.76,0 1946.2,3.03125 1934.77,9.12109 C 1923.44,15.2305 1914.04,24.9414 1906.58,38.2617 C 1899.08,51.5391 1895.35,67.1289 1895.35,85.1016 C 1895.35,110.648 1902.81,131.34 1917.83,147.16 C 1932.84,162.922 1953.58,170.832 1980,170.832 C 2001.47,170.832 2018.39,167.309 2030.84,160.199 C 2043.28,153.129 2052.7,142.891 2059.2,129.449 C 2065.67,116.012 2068.93,98.5391 2068.93,76.9688 L 2068.93,69.9609 z M 2010.76,99.9805 C 2009.59,112.039 2006.61,120.691 2001.68,125.93 C 1996.82,131.18 1990.41,133.77 1982.42,133.77 C 1973.21,133.77 1965.85,129.789 1960.39,121.898 C 1956.84,117.012 1954.63,109.691 1953.66,99.9805 L 2010.76,99.9805"
             style="fill:#862126;fill-opacity:1;fill-rule:nonzero;stroke:none"
             id="path3576" /><path
             d="M 2295.2,167.09 L 2348.93,167.09 L 2348.93,143.289 C 2356.62,153.238 2364.42,160.32 2372.21,164.52 C 2380.12,168.75 2389.57,170.832 2400.66,170.832 C 2412.61,170.832 2422.04,168.559 2429.01,163.91 C 2435.95,159.32 2441.65,152.441 2446.04,143.289 C 2455.05,153.961 2463.3,161.199 2470.71,165.039 C 2478.11,168.879 2487.24,170.832 2498.13,170.832 C 2514.15,170.832 2526.68,165.621 2535.66,155.219 C 2544.64,144.801 2549.15,128.512 2549.15,106.391 L 2549.15,3.76172 L 2491.47,3.76172 L 2491.47,97.0508 C 2491.47,104.461 2490.14,109.93 2487.54,113.52 C 2483.73,119.211 2479,122.039 2473.36,122.039 C 2466.61,122.039 2461.26,119.34 2457.14,114.031 C 2453.06,108.641 2451.01,100.07 2451.01,88.2695 L 2451.01,3.76172 L 2393.34,3.76172 L 2393.34,93.7305 C 2393.34,100.922 2392.95,105.789 2392.17,108.332 C 2390.96,112.422 2388.85,115.75 2385.87,118.262 C 2382.89,120.781 2379.37,122.039 2375.37,122.039 C 2368.78,122.039 2363.41,119.34 2359.21,113.859 C 2354.96,108.441 2352.86,99.5508 2352.86,87.1016 L 2352.86,3.76172 L 2295.2,3.76172 L 2295.2,167.09"
             style="fill:#862126;fill-opacity:1;fill-rule:nonzero;stroke:none"
             id="path3578" /><path
             d="M 2747.35,69.9609 L 2631.94,69.9609 C 2632.96,59.7812 2635.44,52.25 2639.43,47.2812 C 2644.94,40.1406 2652.17,36.6094 2661.1,36.6094 C 2666.75,36.6094 2672.08,38.1484 2677.17,41.25 C 2680.26,43.2188 2683.61,46.6797 2687.15,51.6484 L 2743.89,45.9805 C 2735.26,29.5898 2724.81,17.8086 2712.59,10.6719 C 2700.4,3.53906 2682.84,0 2660,0 C 2640.2,0 2624.6,3.03125 2613.24,9.12109 C 2601.82,15.2305 2592.42,24.9414 2584.96,38.2617 C 2577.46,51.5391 2573.73,67.1289 2573.73,85.1016 C 2573.73,110.648 2581.25,131.34 2596.24,147.16 C 2611.25,162.922 2631.96,170.832 2658.39,170.832 C 2679.86,170.832 2696.8,167.309 2709.21,160.199 C 2721.64,153.129 2731.12,142.891 2737.59,129.449 C 2744.09,116.012 2747.35,98.5391 2747.35,76.9688 L 2747.35,69.9609 z M 2689.14,99.9805 C 2688.01,112.039 2685,120.691 2680.1,125.93 C 2675.18,131.18 2668.79,133.77 2660.83,133.77 C 2651.62,133.77 2644.29,129.789 2638.76,121.898 C 2635.26,117.012 2633.01,109.691 2632.08,99.9805 L 2689.14,99.9805"
             style="fill:#862126;fill-opacity:1;fill-rule:nonzero;stroke:none"
             id="path3580" /><path
             d="M 2839.96,166.922 L 2839.96,167.09 L 2871.54,167.09 L 2871.54,121.07 L 2839.96,121.07 L 2839.96,63.4805 C 2839.96,56.6016 2840.56,52.0117 2841.77,49.7617 C 2843.66,46.3086 2846.92,44.5703 2851.62,44.5703 C 2855.83,44.5703 2861.74,45.8984 2869.29,48.5508 L 2873.52,5.08203 C 2859.31,1.71094 2846.04,0 2833.73,0 C 2819.44,0 2808.9,1.99219 2802.15,5.96875 C 2795.38,9.98047 2790.35,16.0312 2787.13,24.1289 C 2783.87,32.3008 2782.28,45.4492 2782.28,63.6719 L 2782.28,121.07 L 2761.09,121.07 L 2761.09,167.09 L 2782.28,167.09 L 2839.96,166.922"
             style="fill:#862126;fill-opacity:1;fill-rule:nonzero;stroke:none"
             id="path3582" /><path
             d="M 2889.33,167.09 L 3028.42,167.09 L 3028.42,130.93 L 2952.55,45.9805 L 3032.85,45.9805 L 3032.85,3.76172 L 2883.92,3.76172 L 2883.92,43.8594 L 2956.26,124.84 L 2889.33,124.84 L 2889.33,167.09"
             style="fill:#862126;fill-opacity:1;fill-rule:nonzero;stroke:none"
             id="path3584" /><path
             d="M 2128.5,72.25 L 2201.582,72.25 L 2201.582,98.7188 L 2128.5,98.7188 L 2128.5,72.25 z"
             style="fill:#862126;fill-opacity:1;fill-rule:nonzero;stroke:none"
             id="path3586" /><path
             d="M 1885.75,988.172 C 1885.75,988.172 1978.55,1229.43 1873.94,1417.44 L 2068.93,1579.75 C 2068.93,1579.75 2109.86,1286.03 1885.75,988.172"
             style="fill:#4f4b4c;fill-opacity:1;fill-rule:nonzero;stroke:none"
             id="path3588" /></g></g></g></g></svg>