<svg xmlns="http://www.w3.org/2000/svg" width="256" height="256" viewBox="0 0 100 100">
  <rect width="100" height="100" rx="20" fill="#1e6091"/>
  <path d="M23.99 22.82L23.99 22.82Q24.44 22.64 25.39 22.41Q26.33 22.19 27.32 22.19L27.32 22.19Q31.28 22.19 31.28 25.52L31.28 25.52L31.28 64.04Q31.28 68.09 30.11 70.83Q28.94 73.58 26.91 75.25Q24.89 76.91 22.23 77.63Q19.58 78.35 16.70 78.35L16.70 78.35Q11.57 78.35 9.23 77.14Q6.89 75.92 6.89 73.94L6.89 73.94Q6.89 72.68 7.43 71.78Q7.97 70.88 8.42 70.43L8.42 70.43Q9.77 71.06 11.66 71.60Q13.55 72.14 15.62 72.14L15.62 72.14Q19.67 72.14 21.83 70.20Q23.99 68.27 23.99 63.68L23.99 63.68L23.99 22.82ZM85.64 49.37L85.64 49.37Q85.64 43.61 83.88 39.52Q82.13 35.42 79.11 32.81Q76.10 30.20 72.09 28.98Q68.09 27.77 63.50 27.77L63.50 27.77Q60.62 27.77 58.50 27.95Q56.39 28.13 54.59 28.49L54.59 28.49L54.59 71.33Q56.75 71.87 59.22 72.05Q61.70 72.23 64.31 72.23L64.31 72.23Q74.93 72.23 80.28 66.47Q85.64 60.71 85.64 49.37ZM93.11 49.37L93.11 49.37Q93.11 56.75 91.08 62.20Q89.06 67.64 85.32 71.24Q81.59 74.84 76.28 76.59Q70.97 78.35 64.40 78.35L64.40 78.35Q61.52 78.35 57.92 78.13Q54.32 77.90 51.08 76.91L51.08 76.91Q47.30 75.74 47.30 72.77L47.30 72.77L47.30 26.51Q47.30 25.07 48.02 24.30Q48.74 23.54 50.27 23.09L50.27 23.09Q53.06 22.19 56.57 21.92Q60.08 21.65 63.59 21.65L63.59 21.65Q70.16 21.65 75.60 23.41Q81.05 25.16 84.92 28.63Q88.79 32.09 90.95 37.27Q93.11 42.44 93.11 49.37Z" fill="#fff"/>
</svg>

